<svg xmlns="http://www.w3.org/2000/svg" xmlns:xlink="http://www.w3.org/1999/xlink" id="pajamas-chevron-down" x="0px" y="0px" viewBox="0 0 24 24" style="enable-background:new 0 0 24 24;" xml:space="preserve"><style type="text/css">	.st0{fill-rule:evenodd;clip-rule:evenodd;}</style><g>	<g>		<path class="st0" d="M0.7,5.6c0.4-0.4,1-0.7,1.6-0.7s1.2,0.2,1.6,0.7l8.1,8.1l8.1-8.1c0.2-0.2,0.5-0.4,0.7-0.5   c0.3-0.1,0.6-0.2,0.9-0.2c0.3,0,0.6,0.1,0.9,0.2s0.5,0.3,0.7,0.5s0.4,0.5,0.5,0.7C23.9,6.6,24,6.9,24,7.2s-0.1,0.6-0.2,0.9   c-0.1,0.3-0.3,0.5-0.5,0.7l-9.7,9.7c-0.4,0.4-1,0.7-1.6,0.7s-1.2-0.2-1.6-0.7L0.7,8.8C0.2,8.4,0,7.8,0,7.2S0.2,6,0.7,5.6z"></path>	</g></g></svg>