<svg xmlns="http://www.w3.org/2000/svg" xmlns:xlink="http://www.w3.org/1999/xlink" id="Layer_1" x="0px" y="0px" viewBox="0 0 24 24" style="enable-background:new 0 0 24 24;" xml:space="preserve"><path d="M24,9.5C24,8,23.7,6.4,23,5c-0.5-0.6-1.1-1-1.9-1.1c-3-0.3-6.1-0.4-9.1-0.3C9,3.5,5.9,3.6,2.9,3.9C2.3,4,1.8,4.3,1.3,4.7 c-1,0.9-1.1,2.5-1.2,3.8c-0.2,2.4-0.2,4.7,0,7.1c0,0.7,0.1,1.5,0.3,2.2c0.1,0.6,0.4,1.1,0.8,1.5c0.4,0.4,1,0.7,1.6,0.9 c2.4,0.3,4.7,0.4,7.1,0.4c3.8,0.1,7.2,0,11.1-0.3c0.6-0.1,1.2-0.4,1.7-0.9c0.3-0.3,0.5-0.7,0.7-1.1c0.4-1.2,0.6-2.4,0.6-3.7 C24,13.9,24,10.2,24,9.5z M9.5,15.1V8.4l6.5,3.4C14.2,12.8,11.8,13.9,9.5,15.1z"></path></svg>